<svg width="490" height="490" viewBox="0 0 490 490" fill="none" xmlns="http://www.w3.org/2000/svg">
<g clip-path="url(#clip0_143_402)">
<path d="M6.5 233.5C93.7727 206.833 171.273 206.833 244 233.5C316.727 260.167 396.727 261.167 484 234.5L482 286.5L474 318.5L461.5 345C358 377 308 371 242 340.5C174.5 307 102 308.5 25 341.5L8 290L6.5 233.5Z" fill="#D2A24C"/>
<path d="M40 119C113.818 92.3333 181.485 92.3333 243 119C304.515 145.667 372.182 145.667 446 119L475 173L482.5 232C405.5 255 304.515 258.667 243 232C181.485 205.333 79.818 205.333 6 232L15 175.5L40 119Z" fill="#CC6B49"/>
<path d="M40 119C113.818 92.3333 181.485 92.3333 243 119C304.515 145.667 372.182 145.667 446 119L415 73.5L371.5 39.5L310.5 13.5L243 5.5L177 13.5L118 39.5L75.5 73.5L40 119Z" fill="#B04532"/>
<path d="M5 232C92.2727 205.333 172.273 205.333 245 232C317.727 258.667 397.727 258.667 485 232" stroke="#ECE6C2" stroke-width="10"/>
<path d="M40 119C113.818 92.3333 181.485 92.3333 243 119C304.515 145.667 372.182 145.667 446 119" stroke="#ECE6C2" stroke-width="10"/>
<path d="M245.5 48L101 402H390L245.5 48Z" fill="#ECE6C2" stroke="#6F5643" stroke-width="6"/>
<path d="M21 338C101 301.5 187 304 248.5 338C315.5 372 379.5 367.5 464.5 338" stroke="#ECE6C2" stroke-width="10"/>
<path d="M114.604 444.119C76.4197 419.124 46.2444 383.69 27.6565 342.054C106.48 309.703 178.569 310.024 244.106 342.777C310.083 375.749 382.483 376.324 461.128 344.733C442.453 385.21 412.759 419.662 375.396 444.119C336.643 469.487 291.325 483 245 483C198.675 483 153.357 469.487 114.604 444.119Z" fill="#73BDA8" stroke="#73BDA8" stroke-width="4"/>
<path d="M245 485C377.548 485 485 377.548 485 245C485 112.452 377.548 5 245 5C112.452 5 5 112.452 5 245C5 377.548 112.452 485 245 485Z" stroke="#6F5643" stroke-width="10"/>
<mask id="mask0_143_402" style="mask-type:alpha" maskUnits="userSpaceOnUse" x="38" y="94" width="410" height="51">
<path d="M40 119C113.818 92.3333 181.485 92.3333 243 119C304.515 145.667 372.182 145.667 446 119" stroke="black" stroke-width="10"/>
</mask>
<g mask="url(#mask0_143_402)">
<rect x="220.735" y="102.571" width="62.4196" height="14.0704" transform="rotate(22 220.735 102.571)" fill="#6F5643"/>
<path d="M278.5 126L284.129 138.75H272.871L278.5 126Z" fill="#6F5643"/>
</g>
</g>
<defs>
<clipPath id="clip0_143_402">
<rect width="490" height="490" fill="white"/>
</clipPath>
</defs>
</svg>
